<svg width="45" height="45" viewBox="0 0 45 45" fill="none" xmlns="http://www.w3.org/2000/svg">
<g id="logo" transform="translate(-1.9, -2.1) scale(0.0459)" fill="#101010">
<circle cx="700" cy="400" r="64"/>
<path d="M 740 372 Q 790 380 812 404 Q 818 410 810 414 Q 782 424 738 428 Q 752 400 740 372 Z"/>
<path d="M 662 415 C 668 475 645 525 596 565 L 680 610 C 710 535 725 470 734 435 Z"/>
<ellipse cx="524" cy="672" rx="196" ry="102" transform="rotate(-40 524 672)"/>
<circle cx="650" cy="455" r="50"/>
<path d="M 684 478 C 622 396 550 292 484 178 C 476 232 466 285 452 322 C 420 280 390 250 358 218 C 372 268 382 320 388 372 C 360 345 330 322 298 300 C 320 360 356 420 404 470 C 450 512 510 540 570 548 C 625 548 665 520 684 478 Z"/>
<path d="M 520 680 C 488 766 428 830 336 878 C 368 866 396 858 418 854 C 410 886 396 914 380 936 C 406 920 430 898 448 872 C 452 898 450 924 444 948 C 478 908 502 856 514 804 Z"/>
</g>
</svg>
